<mxfile host="app.diagrams.net" modified="2023-05-18T15:25:00.838Z" agent="Mozilla/5.0 (Macintosh; Intel Mac OS X 10_15_7) AppleWebKit/537.36 (KHTML, like Gecko) Chrome/113.0.0.0 Safari/537.36" etag="_BcOuy_hcRAmZlW4Q1gU" version="21.3.2" type="device">
  <diagram name="หน้า-1" id="Zn7GVR9M74QO84CQurHN">
    <mxGraphModel dx="937" dy="539" grid="1" gridSize="10" guides="1" tooltips="1" connect="1" arrows="1" fold="1" page="1" pageScale="1" pageWidth="827" pageHeight="1169" math="0" shadow="0">
      <root>
        <mxCell id="0" />
        <mxCell id="1" parent="0" />
        <mxCell id="eQNiO7HrvjZBHP6kA0-c-1" value="start" style="html=1;dashed=0;whiteSpace=wrap;shape=mxgraph.dfd.start" vertex="1" parent="1">
          <mxGeometry x="374" y="40" width="80" height="30" as="geometry" />
        </mxCell>
        <mxCell id="eQNiO7HrvjZBHP6kA0-c-2" value="Login page" style="text;html=1;strokeColor=none;fillColor=none;align=center;verticalAlign=middle;whiteSpace=wrap;rounded=0;" vertex="1" parent="1">
          <mxGeometry x="30" y="10" width="90" height="30" as="geometry" />
        </mxCell>
      </root>
    </mxGraphModel>
  </diagram>
</mxfile>
